<svg width="30" height="30" viewBox="0 0 30 30" fill="none" xmlns="http://www.w3.org/2000/svg">
<path d="M27.3867 19.7717L27.3467 19.7317L24.3467 17.8517C23.5067 17.2517 22.5867 17.0917 21.6267 17.3717C20.5067 17.6917 19.5467 18.6917 19.0667 19.9717C18.7867 20.7717 18.3067 21.0517 17.4667 20.9317C14.3867 20.5317 9.14669 15.0117 8.82669 11.8517C8.74669 10.9717 9.02669 10.4917 9.82669 10.2517C10.9467 9.81174 11.7467 9.01174 12.0667 8.01174C12.3467 7.01174 12.1467 5.97174 11.4667 5.01174L9.58669 2.01174L9.54669 1.97174C8.62669 0.731739 7.66669 0.0917391 6.50669 0.0117391C5.06669 -0.108261 3.50669 0.691739 1.78669 2.41174C-2.33331 6.53174 1.18669 16.2917 7.10669 22.2117C11.2267 26.3317 17.2267 29.3317 21.9067 29.3317C23.8267 29.3317 25.5067 28.8117 26.7467 27.6917C26.8267 27.6517 26.9067 27.6117 26.9467 27.5317C28.6667 25.8117 29.4667 24.2517 29.3467 22.8117C29.2667 21.6517 28.6267 20.6517 27.3867 19.7717ZM25.9067 26.2517C25.8667 26.2917 25.7867 26.3317 25.7467 26.3717C22.5867 29.5317 14.0667 26.9317 8.18669 21.0517C2.34669 15.2117 -0.213313 6.69174 2.94669 3.53174C4.30669 2.17174 5.46669 1.49174 6.42669 1.57174C7.06669 1.61174 7.66669 2.05174 8.26669 2.85174L10.1467 5.85174L10.1867 5.89174C10.5867 6.41174 10.7067 7.01174 10.5467 7.53174C10.3867 8.05174 9.94669 8.49174 9.26669 8.73174C7.82669 9.21174 7.06669 10.4117 7.22669 12.0117C7.62669 15.9317 13.4267 22.0117 17.2667 22.5317C17.4267 22.5717 17.6267 22.5717 17.7867 22.5717C19.1067 22.5717 20.1067 21.8517 20.5867 20.5717C20.9067 19.7717 21.4667 19.1317 22.1067 18.9317C22.5467 18.8117 22.9867 18.8917 23.4267 19.2117L23.4667 19.2517L26.4667 21.1317C27.3067 21.7317 27.7067 22.3317 27.7467 22.9717C27.8267 23.8117 27.1867 24.9317 25.9067 26.2517Z" fill="#2F80ED"/>
<path d="M15.4399 0.120117C14.9999 0.120117 14.6399 0.480117 14.6399 0.920117C14.6399 1.36012 14.9999 1.72012 15.4399 1.72012C22.5599 1.72012 28.3599 7.52012 28.3599 14.6401C28.3599 15.0801 28.7199 15.4401 29.1599 15.4401C29.5999 15.4401 29.9599 15.0801 29.9599 14.6401C29.9599 6.60012 23.4399 0.120117 15.4399 0.120117Z" fill="#2F80ED"/>
<path d="M15.4399 4.95986C20.7599 4.95986 25.1199 9.27986 25.1199 14.6399C25.1199 15.0799 25.4799 15.4399 25.9199 15.4399C26.3599 15.4399 26.7199 15.0799 26.7199 14.6399C26.7199 8.43986 21.6799 3.35986 15.4399 3.35986C14.9999 3.35986 14.6399 3.71986 14.6399 4.15986C14.6399 4.59986 14.9999 4.95986 15.4399 4.95986Z" fill="#2F80ED"/>
<path d="M15.4399 8.28014C18.9599 8.28014 21.7999 11.1201 21.7999 14.6001C21.7999 15.0401 22.1599 15.4001 22.5999 15.4001C23.0399 15.4001 23.3999 15.0401 23.3999 14.6001C23.3999 10.2001 19.8399 6.64014 15.4399 6.64014C14.9999 6.64014 14.6399 7.00014 14.6399 7.44014C14.6399 7.92014 14.9999 8.28014 15.4399 8.28014Z" fill="#2F80ED"/>
</svg>
